<svg xmlns="http://www.w3.org/2000/svg" viewBox="0 0 1367 636.61"><defs><style>.cls-1,.cls-2,.cls-3,.cls-4,.cls-5{fill:#fff;}.cls-1{opacity:0;}.cls-2{opacity:0.13;}.cls-3{opacity:0.26;}.cls-4{opacity:0.38;}.cls-5{opacity:0.51;}.cls-6{fill:#c8d1e5;opacity:0.63;}.cls-7{fill:#91a3cc;opacity:0.76;}.cls-8{fill:#5a75b2;opacity:0.88;}.cls-9{fill:#234798;}</style></defs><g id="Layer_2" data-name="Layer 2"><g id="Layer_1-2" data-name="Layer 1"><path class="cls-1" d="M1,0C48.07,57.7,202.34,228.64,535,329.53c385.58,116.93,742.8,58.48,831.5,42.22q.26,49.68.5,99.36H1Z"/><path class="cls-2" d="M.75,0c47.07,59.68,201.34,236.51,534,340.88,385.58,121,742.8,60.51,831.5,43.68q.26,51.39.5,102.79H.75Z"/><path class="cls-3" d="M.5,0c47.07,61.68,201.34,244.41,534,352.26,385.58,125,742.8,62.52,831.5,45.13q.26,53.12.5,106.22H.5Z"/><path class="cls-4" d="M.25,0c47.07,63.67,201.34,252.29,534,363.62,385.58,129,742.8,64.54,831.5,46.59q.26,54.82.5,109.65H.25Z"/><path class="cls-5" d="M0,0C47.07,65.66,201.34,260.18,534,375c385.58,133.07,742.8,66.56,831.5,48.05q.26,56.54.5,113.07H0Z"/><path class="cls-6" d="M1365.62,445q.26,58.1.5,116.21H.12v-551c47.07,67.47,201.34,267.38,534,385.37C919.71,532.41,1276.93,464.05,1365.62,445Z"/><path class="cls-7" d="M1365.75,467q.26,59.67.5,119.34H.25V20.56c47.07,69.29,201.34,274.58,534,395.75C919.83,556.76,1277.05,486.56,1365.75,467Z"/><path class="cls-8" d="M1365.88,489q.24,61.23.5,122.47H.38V30.83c47.06,71.11,201.33,281.8,534,406.15C920,581.11,1277.18,509.06,1365.88,489Z"/><path class="cls-9" d="M.5,41.11c47.07,72.93,201.34,289,534,416.53C920.08,605.46,1277.3,531.57,1366,511q.26,62.81.5,125.6H.5Z"/></g></g></svg>