<svg xmlns="http://www.w3.org/2000/svg" viewBox="0 0 200 200"><defs><style>.cls-1{fill:#1d1d1b;}</style></defs><g id="Layer_2" data-name="Layer 2"><g id="Layer_1-2" data-name="Layer 1"><path class="cls-1" d="M115.58,100A15.6,15.6,0,1,1,113,91.3,15.59,15.59,0,0,1,115.58,100Z"/><path class="cls-1" d="M136.41,72.41a15.69,15.69,0,0,0-8.87-8.87A105.18,105.18,0,0,0,100,61.67a104.77,104.77,0,0,0-27.49,1.87,15.49,15.49,0,0,0-8.87,8.93c-2.45,6.12-1.92,20.77-1.92,27.54s-.53,21.36,1.92,27.54a15.77,15.77,0,0,0,8.87,8.87A104.35,104.35,0,0,0,100,138.29a104.75,104.75,0,0,0,27.54-1.87,15.69,15.69,0,0,0,8.87-8.87v0c2.45-6.13,1.87-20.78,1.87-27.55S138.86,78.59,136.41,72.41Zm-16.52,40.83a24,24,0,1,1,4-13.29A23.87,23.87,0,0,1,119.89,113.24Zm9.64-35a5.81,5.81,0,0,1-6,2.48,5.85,5.85,0,1,1,6-2.48Z"/><path class="cls-1" d="M100,0A100,100,0,1,0,200,100,100,100,0,0,0,100,0Zm46.33,119.21a25.82,25.82,0,0,1-27.07,27.08c-7.71.46-30.82.46-38.52,0a27.65,27.65,0,0,1-19.55-7.53,27.51,27.51,0,0,1-7.53-19.55c-.35-7.59-.35-30.93,0-38.52a27.47,27.47,0,0,1,7.53-19.54,27.61,27.61,0,0,1,19.55-7.53c7.59-.35,30.93-.35,38.52,0a27.45,27.45,0,0,1,19.54,7.7,27.43,27.43,0,0,1,7.53,19.41C146.68,88.36,146.68,111.63,146.33,119.21Z"/></g></g></svg>