<svg xmlns="http://www.w3.org/2000/svg" viewBox="0 0 200 200"><defs><style>.cls-1{fill:#1d1d1b;}</style></defs><g id="Layer_2" data-name="Layer 2"><g id="Layer_1-2" data-name="Layer 1"><path class="cls-1" d="M112.77,87.23A12.77,12.77,0,1,1,100,74.47,12.77,12.77,0,0,1,112.77,87.23Z"/><path class="cls-1" d="M100,0A100,100,0,1,0,200,100,100,100,0,0,0,100,0Zm31,109.46a3.71,3.71,0,0,1-.19.46l-25.53,38.29a6.37,6.37,0,0,1-10.62,0L69.16,109.92c-.09-.14-.1-.31-.18-.46a37.69,37.69,0,0,1-7.27-22.23,38.3,38.3,0,0,1,76.59,0A37.69,37.69,0,0,1,131,109.46Z"/></g></g></svg>