<svg xmlns="http://www.w3.org/2000/svg" viewBox="0 0 200 200"><defs><style>.cls-1{fill:#1d1d1b;}</style></defs><g id="Layer_2" data-name="Layer 2"><g id="Layer_1-2" data-name="Layer 1"><path class="cls-1" d="M100,0A100,100,0,1,0,200,100,100,100,0,0,0,100,0Zm47.82,136.25-8.06,8a12.37,12.37,0,0,1-7.53,3.8c-9.25.86-31.87-.09-56-24.07C53.5,101.39,49.43,82,48.91,73a12,12,0,0,1,3.92-9.14L61.74,55c5-4.94,13.34-4.17,17.67,1.61l7.16,9.57a11.49,11.49,0,0,1-.89,15.07l-1.63,1.62S77.9,89,94.68,105.66s22.93,10.58,22.93,10.58l2.59-2.57a11.56,11.56,0,0,1,13.72-1.8l10.85,5.89C151.73,121.55,153.27,130.83,147.82,136.25Z"/></g></g></svg>