<?xml version="1.0" encoding="iso-8859-1"?>
<!-- Uploaded to: SVG Repo, www.svgrepo.com, Generator: SVG Repo Mixer Tools -->
<!DOCTYPE svg PUBLIC "-//W3C//DTD SVG 1.1//EN" "http://www.w3.org/Graphics/SVG/1.1/DTD/svg11.dtd">
<svg fill="#000000" version="1.1" id="Capa_1" xmlns="http://www.w3.org/2000/svg" xmlns:xlink="http://www.w3.org/1999/xlink" 
	 width="800px" height="800px" viewBox="0 0 410.001 410.002"
	 xml:space="preserve">
<g>
	<g>
		<path d="M374.726,325.864h-1.333c10.674-87.423-17.745-140.513-38.406-166.563c-1.532-8.068-4.771-15.466-9.309-21.838
			l12.976-12.976c10.049-10.048,12.84-24.645,8.378-37.224l25.093-25.093c5.974-5.973,5.974-15.659,0-21.634L336.067,4.48
			C333.198,1.611,329.307,0,325.25,0s-7.948,1.612-10.816,4.48L289.36,29.554c-3.803-1.355-7.849-2.06-12.001-2.06
			c-0.001,0,0,0-0.001,0c-9.534,0-18.498,3.712-25.241,10.454L135.29,154.776c-10.048,10.048-12.838,24.645-8.376,37.222
			l-10.669,10.669c-6.743,6.743-10.455,15.707-10.455,25.242c0,9.532,3.712,18.499,10.455,25.239l7.21,7.211
			c6.743,6.741,15.707,10.453,25.241,10.453c9.534,0,18.498-3.712,25.242-10.453l10.649-10.649c3.801,1.354,7.847,2.06,12.001,2.06
			c9.535,0,18.499-3.715,25.239-10.456l26.146-26.146c1.854,1.327,3.792,2.55,5.814,3.648c6.409,25.349,2.062,50.87-12.963,75.967
			c-8.993,15.024-19.588,25.924-25.099,31.083H87.136l-14.451-14.191h124.149c8.448,0,15.298-6.85,15.298-15.298
			c0-8.447-6.85-15.298-15.298-15.298H35.274c-6.213,0-11.808,3.757-14.161,9.508c-2.35,5.751-0.99,12.354,3.441,16.705
			l42.698,41.93v45.483c0,8.449,6.85,15.298,15.298,15.298h292.175c8.449,0,15.3-6.85,15.3-15.298v-53.54
			C390.025,332.714,383.174,325.864,374.726,325.864z M141.653,379.403l-23.363-22.944h122.126
			c2.358,8.569,6.579,16.374,12.21,22.944H141.653L141.653,379.403z M152.301,238.725c-1.3,1.3-2.817,1.496-3.605,1.496
			c-0.788,0-2.306-0.196-3.605-1.496l-7.212-7.209c-1.299-1.301-1.494-2.816-1.494-3.604c0-0.79,0.195-2.306,1.495-3.606
			l8.229-8.229l14.421,14.421L152.301,238.725z M224.608,169.835c0,7.417,1.493,14.597,4.228,21.203l-28.642,28.642
			c-1.299,1.299-2.816,1.493-3.605,1.493c-0.788,0-2.307-0.191-3.607-1.493l-36.056-36.057c-1.987-1.989-1.988-5.223,0-7.212
			L273.751,59.584c1.299-1.3,2.815-1.495,3.605-1.495c0.786,0,2.306,0.195,3.605,1.496l9.153,9.154
			c1.158,1.211,2.323,2.359,3.438,3.455c0.56,0.549,1.129,1.112,1.702,1.685l7.38,7.38c0.603,0.603,1.19,1.202,1.771,1.789
			c1.104,1.122,2.262,2.295,3.479,3.461l9.132,9.132c1.988,1.987,1.988,5.224,0,7.211l-15.468,15.47
			c-6.56-2.693-13.739-4.173-21.258-4.173C249.587,114.148,224.608,139.129,224.608,169.835z M297.887,369.69
			c-16.001,0-29.019-13.021-29.019-29.021s13.018-29.019,29.019-29.019c16.002,0,29.021,13.018,29.021,29.019
			C326.909,356.671,313.889,369.69,297.887,369.69z M359.428,379.403h-16.279c5.635-6.573,9.862-14.38,12.221-22.96l4.06,0.006
			L359.428,379.403L359.428,379.403z"/>
	</g>
</g>
</svg>